<?xml version="1.0" encoding="utf-8"?>
<!-- Generator: Adobe Illustrator 16.0.4, SVG Export Plug-In . SVG Version: 6.00 Build 0)  -->
<!DOCTYPE svg PUBLIC "-//W3C//DTD SVG 1.1//EN" "http://www.w3.org/Graphics/SVG/1.1/DTD/svg11.dtd">
<svg version="1.1" id="Ebene_1" xmlns="http://www.w3.org/2000/svg" xmlns:xlink="http://www.w3.org/1999/xlink" x="0px" y="0px"
	 width="357.662px" height="210.418px" viewBox="0.687 0 357.662 210.418" enable-background="new 0.687 0 357.662 210.418"
	 xml:space="preserve">
<g>
	<path fill="#225A78" d="M107.226,58.305c0,0,3.272-21.432,10.674-30.934c16.367-21.019,48.037-25.593,49.677-25.84
		c0,0,33.585-5.782,56.544,5.125c22.959,10.902,26.463,28.762,26.987,33.739c0.522,4.979,1.25,34.8-11.45,51.254
		c-3.043,3.94-16.678,21.771-57.636,17.133C182.022,108.782,101.933,104.221,107.226,58.305z"/>
	<path fill="#E30613" d="M129.014,54.541c0,0,2.664-17.457,8.685-25.196C151.022,12.223,176.792,8.5,178.127,8.298
		c0,0,27.333-4.707,46.015,4.18c18.685,8.884,21.532,23.431,21.961,27.486c0.425,4.057,1.015,28.347-9.319,41.748
		c-2.478,3.213-13.57,17.732-46.9,13.953C189.881,95.665,124.708,91.941,129.014,54.541z"/>
	<path fill="#5BB130" d="M150.351,52.665c0,0,1.989-13.857,6.545-19.993c10.067-13.575,29.6-16.498,30.614-16.657
		c0,0,20.709-3.701,34.892,3.378c14.181,7.077,16.365,18.63,16.699,21.851c0.33,3.22,0.819,22.508-6.996,33.134
		c-1.87,2.544-10.26,14.059-35.537,11.016C196.567,85.394,147.147,82.353,150.351,52.665z"/>
	<path fill="#831F82" d="M168.929,50.26c0,0,1.433-10.042,4.717-14.486c7.267-9.836,21.358-11.953,22.091-12.064
		c0,0,14.943-2.681,25.178,2.452c10.23,5.129,11.812,13.501,12.053,15.835c0.234,2.332,0.587,16.307-5.045,24.006
		c-1.346,1.844-7.403,10.185-25.639,7.977C202.282,73.979,166.624,71.768,168.929,50.26z"/>
	<path fill="#F5E831" d="M185.377,49.149c0,0,0.899-6.945,2.994-10.014c4.637-6.792,13.668-8.226,14.135-8.304
		c0,0,9.576-1.825,16.15,1.748c6.568,3.568,7.602,9.364,7.762,10.979c0.152,1.615,0.414,11.285-3.182,16.602
		c-0.861,1.274-4.724,7.035-16.422,5.468C206.815,65.628,183.947,64.028,185.377,49.149z"/>
</g>
<g enable-background="new    ">
	<path fill="#225A78" d="M2.312,120.383c1.232-0.115,1.907-0.192,2.023-0.23c0.115,0,0.279-0.029,0.491-0.087
		c0.211-0.058,0.539-0.153,0.982-0.289c0.442-0.135,0.953-0.279,1.531-0.434c0.578-0.153,1.098-0.058,1.561,0.289
		c0.616,0.193,1.02,0.617,1.213,1.271c1.348,5.009,3.93,12.001,7.744,20.978c0.809-1.348,1.917-3.303,3.323-5.865
		c1.406-2.562,2.225-4.035,2.456-4.421c0.116-0.231,0.269-0.424,0.462-0.578c0.308-0.731,0.867-1.098,1.676-1.098h3.41
		c0.423-0.231,0.867-0.289,1.329-0.174s0.828,0.386,1.098,0.81l5.779,10.171c0.154-0.578,0.366-1.406,0.636-2.485l1.329-5.433
		c0.231-0.847,0.587-2.07,1.069-3.669c0.481-1.599,0.896-3.034,1.242-4.306c0.269-1.04,0.578-2.292,0.925-3.756
		c0.192-0.848,0.712-1.31,1.561-1.388c0.347-0.23,0.712-0.326,1.098-0.289l3.583,0.289c0.462,0.039,0.847,0.223,1.156,0.549
		c0.308,0.328,0.481,0.704,0.521,1.127c0.038,0.193,0.058,0.405,0.058,0.636c-0.193,2.196-0.578,4.933-1.156,8.207
		c-0.848,5.124-1.292,7.821-1.329,8.09c-0.27,1.542-0.694,4.71-1.271,9.507c-0.578,4.797-1.118,8.486-1.618,11.066
		c-0.039,0.386-0.212,0.693-0.52,0.925c-0.27,0.693-0.771,1.06-1.502,1.099c-3.468,0.191-5.857,0.347-7.166,0.462
		c-0.501,0.038-0.945-0.106-1.33-0.434c-0.385-0.327-0.598-0.723-0.635-1.185v-0.174c0-0.037-0.02-0.076-0.058-0.115
		c-0.655-1.694-1.609-4.295-2.86-7.802c-1.252-3.505-2.245-6.145-2.977-7.917l-5.836,15.257c-0.155,0.462-0.462,0.8-0.925,1.011
		c-0.462,0.213-0.925,0.223-1.387,0.029c-0.039,0-0.078-0.02-0.116-0.058h-0.231c-1.156-0.077-2.889-0.116-5.201-0.116
		c-0.462,0-0.858-0.153-1.185-0.462c-0.328-0.308-0.53-0.674-0.606-1.098c-0.155-0.231-0.251-0.463-0.289-0.694
		c-0.501-2.195-1.06-4.382-1.676-6.559c-0.617-2.177-1.368-4.613-2.254-7.311l-2.081-6.126l-2.658-7.281l-2.312-6.415
		c-0.039-0.153-0.078-0.289-0.115-0.404c-0.347-0.308-0.54-0.693-0.578-1.156c-0.039-0.5,0.096-0.943,0.405-1.329
		C1.406,120.634,1.811,120.422,2.312,120.383z"/>
</g>
<g enable-background="new    ">
	<path fill="#225A78" d="M67.787,155.405c2.427-0.231,4.45-1.656,6.068-4.276c0.231-0.424,0.587-0.694,1.069-0.81
		c0.481-0.115,0.934-0.058,1.358,0.174c0.308,0.038,0.597,0.154,0.867,0.347c0.231,0.193,0.462,0.375,0.693,0.549
		c0.231,0.173,0.366,0.28,0.404,0.317c0.038,0.039,0.125,0.106,0.26,0.202c0.134,0.097,0.221,0.155,0.26,0.174
		c0.038,0.02,0.173,0.087,0.404,0.202l0.809,0.463c0.423,0.27,0.693,0.646,0.809,1.127s0.058,0.935-0.173,1.357
		c-0.078,0.231-0.193,0.443-0.347,0.636c-1.618,1.965-2.64,3.141-3.063,3.525c-2.658,2.272-6.146,3.236-10.46,2.89
		c-5.317-0.425-9.17-2.234-11.558-5.433c-2.543-3.429-2.947-7.724-1.213-12.887c1.04-3.006,2.812-5.354,5.316-7.051
		c2.504-1.733,5.239-2.658,8.206-2.773c3.043-0.116,5.827,0.655,8.351,2.312c2.523,1.656,4.285,4.084,5.288,7.281
		c0.116,0.425,0.077,0.848-0.116,1.271c-0.193,0.424-0.501,0.713-0.924,0.866c-0.155,0.155-0.309,0.271-0.462,0.348
		c-4.932,1.965-9.882,3.448-14.852,4.449c-0.039,0.039-0.078,0.058-0.116,0.058l-3.987,1.618l0.462,0.463
		c0.77,0.771,1.637,1.387,2.6,1.849C65.051,155.038,66.4,155.288,67.787,155.405z M61.488,144.482c-0.039,0.732,0,1.465,0.115,2.196
		c1.503-0.578,4.874-1.676,10.113-3.294c-0.501-0.847-0.887-1.406-1.156-1.676c-0.385-0.347-0.963-0.655-1.733-0.925
		C65.938,140.977,63.491,142.209,61.488,144.482z"/>
</g>
<g enable-background="new    ">
	<path fill="#225A78" d="M93.676,161.935c-1.965,0.115-3.872,0.173-5.721,0.173c-0.424,0-0.809-0.145-1.156-0.434
		c-0.347-0.288-0.559-0.646-0.636-1.068c-0.154-0.309-0.212-0.636-0.173-0.982c0.347-3.853,0.481-8.688,0.404-14.506
		c-0.039-0.693-0.097-2.841-0.173-6.443c-0.078-3.602-0.116-6.366-0.116-8.293c0-0.654-0.039-1.829-0.115-3.525
		c-0.078-1.694-0.106-3.227-0.087-4.594c0.019-1.367,0.145-2.648,0.375-3.844c-0.078-0.23-0.115-0.48-0.115-0.751
		c0.038-0.5,0.24-0.915,0.607-1.242c0.365-0.327,0.799-0.472,1.3-0.434c1.156,0.077,2.985,0.115,5.49,0.115
		c0.153,0,0.308,0.021,0.462,0.058h0.116c0.462,0.039,0.867,0.241,1.213,0.607s0.5,0.8,0.462,1.3
		c-0.54,10.711-0.809,24.388-0.809,41.031c0.192,0.271,0.308,0.578,0.347,0.925c0.038,0.501-0.106,0.934-0.434,1.3
		C94.591,161.694,94.176,161.896,93.676,161.935z"/>
</g>
<g enable-background="new    ">
	<path fill="#225A78" d="M120.548,132.404l0.058,2.196c0,0.693-0.289,1.233-0.867,1.618c-0.231,0.154-0.501,0.27-0.809,0.347
		c-1.58,0.231-3.217,0.425-4.912,0.578c-0.115,7.859-0.385,15.219-0.809,22.075c0,0.078-0.02,0.155-0.058,0.231
		c0.038,0.154,0.058,0.289,0.058,0.404c0,0.502-0.173,0.925-0.52,1.271s-0.771,0.521-1.271,0.521h-3.93
		c-0.501,0-0.924-0.174-1.271-0.521c-0.347-0.347-0.52-0.77-0.52-1.271c0-0.192,0.038-0.385,0.116-0.577
		c-0.154-0.27-0.231-0.559-0.231-0.867c0-7.782,0.038-14.37,0.115-19.765v-1.213c-1.696-0.038-3.294-0.154-4.796-0.347
		c-0.424-0.077-0.771-0.261-1.041-0.55c-0.27-0.288-0.442-0.625-0.52-1.011c-0.269-0.27-0.423-0.597-0.462-0.982l-0.231-1.965
		c-0.038-0.5,0.097-0.943,0.405-1.329c0.309-0.385,0.693-0.616,1.156-0.693h0.231c0.308-0.231,0.655-0.347,1.04-0.347
		c1.117,0,2.562-0.02,4.334-0.059c-0.039-1.733-0.154-3.312-0.347-4.738c-0.039-0.424,0.058-0.828,0.289-1.214
		c0.038-0.462,0.231-0.856,0.578-1.185c0.347-0.327,0.751-0.491,1.214-0.491h4.045c0.462,0,0.867,0.154,1.214,0.462
		c0.385,0.116,0.703,0.328,0.954,0.636c0.25,0.31,0.375,0.675,0.375,1.099v5.374c1.502,0,2.89,0.058,4.161,0.174
		c0.424,0.038,0.79,0.212,1.098,0.52C120.124,131.056,120.51,131.595,120.548,132.404z"/>
</g>
<g enable-background="new    ">
	<path fill="#225A78" d="M147.593,131.248l-1.502,3.178c-0.193,0.425-0.501,0.732-0.924,0.925c-0.617,0.425-1.252,0.482-1.907,0.174
		c-2.427-1.271-4.701-1.965-6.819-2.081c-2.351-0.115-3.776,0.694-4.276,2.428c-0.309,1.002-0.231,1.869,0.231,2.601
		c0.231,0.424,0.529,0.809,0.896,1.155c0.366,0.347,0.838,0.665,1.416,0.954c0.578,0.289,1.069,0.52,1.474,0.693
		c0.404,0.173,1.059,0.434,1.965,0.78c0.905,0.347,1.589,0.598,2.051,0.751c2.234,0.887,3.891,1.889,4.97,3.005
		c1.618,1.618,2.485,3.719,2.601,6.3c0.115,2.158-0.425,3.968-1.618,5.432c-1.195,1.465-2.716,2.505-4.565,3.121
		c-1.657,0.578-3.458,0.702-5.403,0.375c-1.946-0.326-3.632-1.068-5.057-2.225c-0.309-0.269-0.598-0.539-0.867-0.809
		c-0.27-0.27-0.501-0.559-0.693-0.867l-0.578-0.809c-0.115-0.192-0.251-0.463-0.404-0.81l-0.347-0.693
		c-0.078-0.192-0.184-0.481-0.318-0.867c-0.136-0.385-0.241-0.654-0.318-0.809c-0.078-0.231-0.116-0.463-0.116-0.693
		c0-0.038-0.02-0.077-0.058-0.116c-0.231-0.423-0.289-0.866-0.173-1.329c0.115-0.462,0.404-0.828,0.867-1.098l2.312-1.329
		c0.308-0.192,0.655-0.27,1.041-0.231c0.809-0.231,1.463-0.019,1.965,0.636c0.539,0.732,1.213,1.483,2.022,2.254
		c0.809,0.771,1.579,1.329,2.312,1.676c0.539,0.271,0.886,0.367,1.041,0.289c0.308-0.27,0.52-0.886,0.636-1.85
		c0.038-0.038,0.048-0.076,0.029-0.115c-0.02-0.038-0.136-0.153-0.347-0.347c-0.212-0.192-0.511-0.424-0.896-0.693
		c-0.501-0.309-1.233-0.713-2.196-1.214l-2.832-1.387c-1.156-0.578-2.158-1.127-3.005-1.647c-0.848-0.52-1.763-1.213-2.745-2.08
		s-1.772-1.858-2.369-2.977c-0.598-1.117-0.935-2.35-1.012-3.698c-0.154-2.196,0.279-4.151,1.3-5.866
		c1.021-1.714,2.417-3.092,4.19-4.132c1.656-0.962,3.477-1.589,5.461-1.878c1.984-0.289,3.901-0.202,5.75,0.26
		c0.616,0.154,1.156,0.31,1.618,0.463c0.462,0.154,0.924,0.347,1.387,0.578l0.925,0.577c0.231,0.116,0.606,0.376,1.127,0.78
		c0.52,0.404,0.915,0.703,1.185,0.896c0.539,0.386,0.789,0.887,0.751,1.503C147.767,130.69,147.709,130.979,147.593,131.248z"/>
	<path fill="#225A78" d="M156.897,173.608c-1.234-0.077-2.524-0.115-3.872-0.115c-0.501,0-0.925-0.173-1.271-0.52
		c-0.347-0.348-0.52-0.771-0.52-1.271c0-0.231,0.038-0.443,0.116-0.636c-0.116-0.271-0.173-0.56-0.173-0.867
		c0.038-1.733,0.115-4.72,0.231-8.957l0.347-9.767c0.077-2.312,0.145-5.201,0.202-8.669c0.058-3.468,0.087-6.646,0.087-9.535
		c0-0.153,0.019-0.308,0.058-0.463c-0.078-0.191-0.116-0.404-0.116-0.635c0-0.501,0.174-0.925,0.521-1.271s0.77-0.521,1.271-0.521
		h4.045c0.731,0,1.251,0.328,1.561,0.982c0.385,0.347,0.578,0.79,0.578,1.329l-0.058,1.214c0.539-0.463,1.136-0.905,1.792-1.329
		c1.232-0.81,2.832-1.271,4.796-1.387c4.314-0.231,7.551,1.233,9.709,4.392c1.811,2.697,2.407,5.876,1.792,9.535
		c-0.656,3.699-2.292,6.415-4.912,8.148c-3.044,2.081-6.55,2.062-10.518-0.058c-1.888-1.001-2.967-1.599-3.236-1.792l-0.115-0.115
		l-0.058,0.636c-0.115,1.889-0.154,5.066-0.115,9.535c0.038,4.276-0.039,7.57-0.231,9.883v0.115v0.462
		c-0.039,0.501-0.241,0.915-0.606,1.243C157.831,173.501,157.397,173.646,156.897,173.608z M169.611,145.117
		c0.578-0.771,0.924-1.502,1.04-2.196c0.116-0.809-0.039-1.714-0.462-2.716c-0.309-0.269-0.674-0.462-1.098-0.578
		c-1.696-0.462-3.756,0.271-6.184,2.196c-0.039,0.925-0.058,1.984-0.058,3.179C165.43,145.58,167.684,145.618,169.611,145.117z"/>
</g>
<g enable-background="new    ">
	<path fill="#225A78" d="M188.738,162.397c-1.195,0.192-2.466,0.347-3.814,0.463c-0.424,0.037-0.809-0.059-1.156-0.289
		c-0.347-0.231-0.578-0.54-0.693-0.925c-0.617-0.347-0.906-0.887-0.867-1.618c0.578-8.938,0.5-17.779-0.231-26.525
		c-0.039-0.385,0.038-0.752,0.231-1.099c0.077-0.423,0.279-0.78,0.607-1.069c0.327-0.288,0.722-0.433,1.185-0.433h5.721
		c0.5,0,0.925,0.173,1.271,0.52s0.521,0.771,0.521,1.271c0,0.154-0.021,0.328-0.059,0.521c0.077,0.193,0.115,0.424,0.115,0.693
		c-0.038,1.772-0.154,4.296-0.346,7.57c-0.193,3.236-0.309,5.471-0.348,6.704c-0.039,1.155-0.039,3.082,0,5.778
		c0,2.505-0.039,4.489-0.115,5.953c-0.039,0.501-0.23,0.904-0.578,1.213C189.952,161.857,189.469,162.281,188.738,162.397z
		 M190.5,120.817c0.904,0.906,1.357,1.994,1.357,3.266s-0.453,2.36-1.357,3.265c-0.906,0.906-1.994,1.358-3.265,1.358
		c-1.271,0-2.36-0.452-3.265-1.358c-0.906-0.904-1.358-1.993-1.358-3.265s0.453-2.359,1.358-3.266
		c0.905-0.904,1.994-1.357,3.265-1.357C188.506,119.459,189.594,119.912,190.5,120.817z"/>
	<path fill="#225A78" d="M210.235,155.405c2.428-0.231,4.451-1.656,6.068-4.276c0.231-0.424,0.587-0.694,1.069-0.81
		c0.481-0.115,0.934-0.058,1.358,0.174c0.308,0.038,0.597,0.154,0.867,0.347c0.23,0.193,0.461,0.375,0.693,0.549
		c0.23,0.173,0.365,0.28,0.404,0.317c0.037,0.039,0.125,0.106,0.26,0.202c0.135,0.097,0.221,0.155,0.26,0.174
		c0.038,0.02,0.174,0.087,0.404,0.202l0.81,0.463c0.423,0.27,0.693,0.646,0.81,1.127c0.115,0.481,0.057,0.935-0.174,1.357
		c-0.078,0.231-0.193,0.443-0.347,0.636c-1.618,1.965-2.64,3.141-3.063,3.525c-2.658,2.272-6.145,3.236-10.459,2.89
		c-5.317-0.425-9.17-2.234-11.559-5.433c-2.543-3.429-2.947-7.724-1.213-12.887c1.039-3.006,2.811-5.354,5.316-7.051
		c2.504-1.733,5.238-2.658,8.205-2.773c3.044-0.116,5.828,0.655,8.352,2.312s4.285,4.084,5.287,7.281
		c0.116,0.425,0.077,0.848-0.115,1.271c-0.193,0.424-0.501,0.713-0.924,0.866c-0.155,0.155-0.31,0.271-0.463,0.348
		c-4.932,1.965-9.883,3.448-14.852,4.449c-0.039,0.039-0.078,0.058-0.116,0.058l-3.987,1.618l0.463,0.463
		c0.77,0.771,1.637,1.387,2.6,1.849C207.5,155.038,208.848,155.288,210.235,155.405z M203.936,144.482
		c-0.039,0.732,0,1.465,0.115,2.196c1.504-0.578,4.874-1.676,10.113-3.294c-0.5-0.847-0.887-1.406-1.155-1.676
		c-0.386-0.347-0.964-0.655-1.733-0.925C208.386,140.977,205.939,142.209,203.936,144.482z"/>
</g>
<g enable-background="new    ">
	<path fill="#225A78" d="M235.259,161.935c-1.965,0.115-3.872,0.173-5.722,0.173c-0.424,0-0.809-0.145-1.155-0.434
		c-0.347-0.288-0.56-0.646-0.636-1.068c-0.154-0.309-0.213-0.636-0.174-0.982c0.348-3.853,0.481-8.688,0.404-14.506
		c-0.038-0.693-0.096-2.841-0.173-6.443c-0.077-3.602-0.116-6.366-0.116-8.293c0-0.654-0.038-1.829-0.115-3.525
		c-0.077-1.694-0.105-3.227-0.086-4.594c0.019-1.367,0.145-2.648,0.375-3.844c-0.078-0.23-0.115-0.48-0.115-0.751
		c0.037-0.5,0.24-0.915,0.607-1.242c0.365-0.327,0.799-0.472,1.299-0.434c1.156,0.077,2.986,0.115,5.49,0.115
		c0.154,0,0.309,0.021,0.463,0.058h0.115c0.463,0.039,0.867,0.241,1.214,0.607s0.501,0.8,0.462,1.3
		c-0.539,10.711-0.809,24.388-0.809,41.031c0.192,0.271,0.309,0.578,0.347,0.925c0.038,0.501-0.106,0.934-0.434,1.3
		S235.759,161.896,235.259,161.935z"/>
	<path fill="#225A78" d="M246.528,173.608c-1.234-0.077-2.523-0.115-3.872-0.115c-0.501,0-0.925-0.173-1.271-0.52
		c-0.347-0.348-0.521-0.771-0.521-1.271c0-0.231,0.039-0.443,0.116-0.636c-0.116-0.271-0.173-0.56-0.173-0.867
		c0.037-1.733,0.115-4.72,0.23-8.957l0.347-9.767c0.077-2.312,0.145-5.201,0.202-8.669c0.059-3.468,0.087-6.646,0.087-9.535
		c0-0.153,0.019-0.308,0.058-0.463c-0.078-0.191-0.115-0.404-0.115-0.635c0-0.501,0.174-0.925,0.52-1.271
		c0.348-0.347,0.771-0.521,1.271-0.521h4.045c0.732,0,1.252,0.328,1.561,0.982c0.385,0.347,0.578,0.79,0.578,1.329l-0.058,1.214
		c0.539-0.463,1.136-0.905,1.792-1.329c1.232-0.81,2.831-1.271,4.796-1.387c4.314-0.231,7.551,1.233,9.709,4.392
		c1.811,2.697,2.407,5.876,1.792,9.535c-0.656,3.699-2.293,6.415-4.912,8.148c-3.045,2.081-6.551,2.062-10.519-0.058
		c-1.888-1.001-2.967-1.599-3.236-1.792l-0.115-0.115l-0.058,0.636c-0.115,1.889-0.154,5.066-0.115,9.535
		c0.037,4.276-0.039,7.57-0.232,9.883v0.115v0.462c-0.038,0.501-0.24,0.915-0.605,1.243
		C247.461,173.501,247.028,173.646,246.528,173.608z M259.242,145.117c0.577-0.771,0.925-1.502,1.04-2.196
		c0.115-0.809-0.039-1.714-0.463-2.716c-0.309-0.269-0.674-0.462-1.098-0.578c-1.695-0.462-3.756,0.271-6.184,2.196
		c-0.039,0.925-0.058,1.984-0.058,3.179C255.061,145.58,257.315,145.618,259.242,145.117z"/>
</g>
<g enable-background="new    ">
	<path fill="#225A78" d="M281.259,161.935c-1.965,0.115-3.872,0.173-5.722,0.173c-0.424,0-0.809-0.145-1.155-0.434
		c-0.347-0.288-0.56-0.646-0.636-1.068c-0.154-0.309-0.213-0.636-0.174-0.982c0.348-3.853,0.481-8.688,0.404-14.506
		c-0.038-0.693-0.096-2.841-0.173-6.443c-0.077-3.602-0.116-6.366-0.116-8.293c0-0.654-0.038-1.829-0.115-3.525
		c-0.077-1.694-0.105-3.227-0.086-4.594c0.019-1.367,0.145-2.648,0.375-3.844c-0.078-0.23-0.115-0.48-0.115-0.751
		c0.037-0.5,0.24-0.915,0.607-1.242c0.365-0.327,0.799-0.472,1.299-0.434c1.156,0.077,2.986,0.115,5.49,0.115
		c0.154,0,0.309,0.021,0.463,0.058h0.115c0.463,0.039,0.867,0.241,1.214,0.607s0.501,0.8,0.462,1.3
		c-0.539,10.711-0.809,24.388-0.809,41.031c0.192,0.271,0.309,0.578,0.347,0.925c0.038,0.501-0.106,0.934-0.434,1.3
		S281.759,161.896,281.259,161.935z"/>
</g>
<g enable-background="new    ">
	<path fill="#225A78" d="M303.68,145.002c0.077-0.731,0.116-1.425,0.116-2.081c0.038-2.312-0.405-3.794-1.329-4.449
		c-1.156-0.886-3.295-0.751-6.415,0.404c-0.771,0.271-1.426,0.115-1.965-0.462c-0.655-0.192-1.079-0.616-1.271-1.271l-0.926-3.872
		c-0.115-0.5-0.039-0.954,0.231-1.358c0.269-0.404,0.636-0.664,1.099-0.78c0.308-0.076,0.615-0.076,0.924,0
		c0.077,0,0.366-0.048,0.867-0.145c0.5-0.096,0.838-0.153,1.012-0.173c0.173-0.02,0.5-0.067,0.982-0.145
		c0.48-0.077,0.847-0.125,1.098-0.145c0.25-0.019,0.597-0.048,1.04-0.087c0.442-0.038,0.818-0.048,1.127-0.028
		c0.308,0.02,0.655,0.049,1.04,0.086c0.385,0.039,0.752,0.097,1.098,0.174c5.163,1.118,7.803,5.587,7.918,13.407
		c0,2.234-0.193,5.124-0.578,8.669c-0.424,4.045-0.655,6.261-0.693,6.646c0,0.425-0.135,0.79-0.404,1.098
		c-0.27,0.309-0.598,0.501-0.982,0.578c-0.348,0.27-0.732,0.385-1.156,0.347c-1.426-0.077-2.852-0.136-4.276-0.173
		c-0.501,0-0.915-0.184-1.242-0.55c-0.328-0.365-0.491-0.799-0.491-1.3v-0.231v-0.173c-1.773,0.309-3.468,0.443-5.086,0.404
		c-4.623-0.192-7.821-1.733-9.593-4.623c-0.425-0.771-0.655-1.666-0.694-2.688c-0.038-1.021,0.096-1.858,0.405-2.514
		c1.425-3.775,4.526-5.74,9.304-5.895C297.381,143.557,300.329,144,303.68,145.002z M302.525,150.665
		c-0.271-0.038-1.155-0.269-2.658-0.693c-1.118-0.308-2.004-0.521-2.659-0.636c-0.693-0.153-1.31-0.25-1.849-0.289
		c-1.04,0.309-1.763,0.714-2.167,1.214c-0.404,0.501-0.607,0.982-0.607,1.444c0.039,0.732,0.501,1.388,1.388,1.965
		c0.153,0,0.308,0.021,0.462,0.059c2.619,0.192,5.144-0.059,7.57-0.752c0.231-0.847,0.424-1.618,0.578-2.312H302.525z"/>
	<path fill="#225A78" d="M332.401,132.404l0.059,2.196c0,0.693-0.289,1.233-0.867,1.618c-0.23,0.154-0.501,0.27-0.809,0.347
		c-1.58,0.231-3.218,0.425-4.912,0.578c-0.115,7.859-0.386,15.219-0.81,22.075c0,0.078-0.02,0.155-0.058,0.231
		c0.038,0.154,0.058,0.289,0.058,0.404c0,0.502-0.173,0.925-0.521,1.271c-0.346,0.347-0.771,0.521-1.271,0.521h-3.93
		c-0.5,0-0.924-0.174-1.271-0.521c-0.346-0.347-0.52-0.77-0.52-1.271c0-0.192,0.038-0.385,0.115-0.577
		c-0.154-0.27-0.23-0.559-0.23-0.867c0-7.782,0.037-14.37,0.115-19.765v-1.213c-1.695-0.038-3.294-0.154-4.797-0.347
		c-0.424-0.077-0.771-0.261-1.04-0.55c-0.27-0.288-0.442-0.625-0.521-1.011c-0.269-0.27-0.423-0.597-0.462-0.982l-0.231-1.965
		c-0.037-0.5,0.098-0.943,0.405-1.329c0.309-0.385,0.693-0.616,1.155-0.693h0.231c0.308-0.231,0.655-0.347,1.04-0.347
		c1.117,0,2.562-0.02,4.334-0.059c-0.039-1.733-0.154-3.312-0.346-4.738c-0.039-0.424,0.057-0.828,0.289-1.214
		c0.037-0.462,0.23-0.856,0.577-1.185c0.347-0.327,0.751-0.491,1.214-0.491h4.045c0.463,0,0.867,0.154,1.214,0.462
		c0.385,0.116,0.702,0.328,0.954,0.636c0.25,0.31,0.375,0.675,0.375,1.099v5.374c1.502,0,2.89,0.058,4.16,0.174
		c0.424,0.038,0.79,0.212,1.099,0.52C331.977,131.056,332.363,131.595,332.401,132.404z"/>
</g>
<g enable-background="new    ">
	<path fill="#225A78" d="M358.349,156.387v2.427c0,0.463-0.154,0.867-0.462,1.214c-0.309,0.347-0.693,0.54-1.156,0.578
		c-0.193,0.077-0.424,0.115-0.693,0.115c-2.351-0.077-5.674-0.066-9.969,0.029c-4.297,0.096-7.118,0.145-8.467,0.145
		c-0.5,0-0.924-0.174-1.271-0.521c-0.346-0.347-0.52-0.771-0.52-1.271v-0.173c-0.039-0.192-0.058-0.405-0.058-0.636l0.173-3.468
		c0.038-0.424,0.211-0.789,0.521-1.098c0.038-0.116,0.096-0.212,0.173-0.289c0.81-1.04,2.226-2.977,4.248-5.809
		c2.022-2.831,3.65-4.998,4.883-6.501c-2.773,0-4.932,0.058-6.473,0.174c-0.848,0.077-1.426-0.289-1.732-1.099
		c-0.31-0.269-0.482-0.615-0.521-1.04l-0.404-3.583c-0.039-0.462,0.096-0.886,0.404-1.271c0.309-0.385,0.713-0.616,1.215-0.693
		c0.269-0.038,0.558,0,0.866,0.115c1.927,0.116,4.526,0.116,7.802,0c4.43-0.153,7.166-0.23,8.206-0.23h0.116h0.115
		c0.5,0,0.924,0.173,1.271,0.52c0.347,0.347,0.52,0.771,0.52,1.271v2.312c0.154,0.617,0.038,1.156-0.346,1.618
		c-2.853,3.314-6.801,8.399-11.848,15.257h11.442c0.385,0,0.751,0.115,1.099,0.347C358.06,155.173,358.349,155.694,358.349,156.387z
		"/>
</g>
<g enable-background="new    ">
	<path fill="#5BB130" d="M88.454,182.665c-0.02,0.42-0.041,1.015-0.06,1.784c-0.02,0.771-0.03,1.235-0.03,1.396
		c0,0.26-0.095,0.476-0.285,0.645c-0.19,0.171-0.416,0.255-0.675,0.255c-0.101,0-0.2-0.02-0.3-0.06c-0.72,0.04-1.47,0.07-2.25,0.09
		c-0.78,0.021-1.69,0.035-2.73,0.045c-1.04,0.011-1.79,0.016-2.25,0.016c0,0.479,0.095,2.84,0.285,7.08
		c0.19,4.24,0.285,7.46,0.285,9.659c0,0.221-0.065,0.41-0.195,0.57c-0.13,0.16-0.295,0.271-0.495,0.33
		c-0.18,0.18-0.4,0.27-0.66,0.27c-1.46,0-2.58,0.03-3.36,0.091c-0.22,0.02-0.42-0.035-0.6-0.165c-0.18-0.131-0.3-0.296-0.36-0.495
		c-0.26-0.221-0.38-0.5-0.36-0.84c0.2-2.26,0.28-5.05,0.24-8.37c-0.021-0.74-0.045-1.955-0.075-3.646
		c-0.03-1.689-0.045-2.984-0.045-3.885c-1.14,0.021-3.41,0.08-6.81,0.18c-0.26,0-0.485-0.085-0.675-0.255s-0.285-0.385-0.285-0.645
		v-0.15c-0.12-0.18-0.18-0.37-0.18-0.57c0-0.359-0.01-0.904-0.03-1.635c-0.021-0.729-0.03-1.274-0.03-1.635
		c0-0.16,0.04-0.31,0.12-0.45c0.08-0.38,0.32-0.609,0.72-0.689c0.739-0.16,1.57-0.271,2.49-0.33c0.92-0.061,1.71-0.08,2.37-0.061
		c0.66,0.021,1.51,0.051,2.55,0.09c1.04,0.041,1.79,0.061,2.25,0.061c2.72,0.04,6.17,0.06,10.35,0.06c0.44,0,0.73,0.21,0.87,0.63
		C88.404,182.215,88.474,182.425,88.454,182.665z"/>
</g>
<g enable-background="new    ">
	<path fill="#5BB130" d="M98.894,193.375c-1.061-0.601-2.01-0.55-2.85,0.149c-0.76,0.641-1.41,1.69-1.95,3.15v3.27v3.271
		c0.06,0.1,0.09,0.21,0.09,0.33c0.02,0.26-0.056,0.484-0.225,0.675c-0.17,0.189-0.385,0.295-0.645,0.314
		c-0.641,0.04-1.61,0.061-2.91,0.061c-0.26,0-0.48-0.09-0.66-0.271c-0.18-0.18-0.27-0.4-0.27-0.659c0-0.221,0.07-0.421,0.21-0.601
		c0-0.58,0.015-1.954,0.045-4.125c0.03-2.17,0.03-3.939,0-5.31c-0.03-1.37-0.115-2.715-0.255-4.035v-0.18
		c-0.021-0.2,0.024-0.396,0.135-0.585c0.11-0.19,0.275-0.315,0.495-0.375c0.82-0.301,1.92-0.45,3.3-0.45c0.26,0,0.48,0.09,0.66,0.27
		c0.18,0.181,0.27,0.4,0.27,0.66c0,0.12-0.02,0.24-0.06,0.36l-0.03,0.33c0.84-0.74,1.68-1.25,2.52-1.53
		c0.6-0.18,1.19-0.26,1.77-0.24c0.58,0.021,1.15,0.226,1.71,0.615s1.05,0.935,1.47,1.635c0.02,0.061,0.04,0.11,0.06,0.15
		c0.12,0.2,0.165,0.42,0.135,0.66c-0.03,0.239-0.135,0.43-0.315,0.569l-0.57,0.45c-0.101,0.08-0.16,0.125-0.18,0.135
		c-0.02,0.011-0.04,0.03-0.06,0.061c-0.02,0.029-0.07,0.1-0.15,0.21c-0.08,0.11-0.19,0.245-0.33,0.404
		c-0.02,0.041-0.04,0.07-0.06,0.091c-0.02,0.06-0.05,0.12-0.09,0.18c-0.12,0.24-0.305,0.39-0.555,0.45
		C99.349,193.525,99.114,193.494,98.894,193.375z"/>
	<path fill="#5BB130" d="M111.463,200.965c1.26-0.12,2.31-0.86,3.15-2.221c0.12-0.22,0.305-0.359,0.555-0.42
		c0.25-0.06,0.485-0.029,0.705,0.091c0.16,0.02,0.31,0.08,0.45,0.18c0.12,0.101,0.24,0.195,0.36,0.285s0.19,0.146,0.21,0.165
		c0.02,0.02,0.065,0.055,0.135,0.104c0.07,0.051,0.115,0.08,0.135,0.09c0.02,0.011,0.09,0.045,0.21,0.105l0.42,0.24
		c0.22,0.14,0.36,0.335,0.42,0.585c0.06,0.25,0.03,0.484-0.09,0.705c-0.04,0.119-0.1,0.229-0.18,0.33
		c-0.84,1.02-1.371,1.63-1.59,1.829c-1.38,1.181-3.19,1.681-5.43,1.5c-2.76-0.22-4.76-1.159-6-2.819c-1.32-1.78-1.53-4.01-0.63-6.69
		c0.54-1.56,1.46-2.779,2.76-3.66c1.3-0.899,2.72-1.38,4.26-1.439c1.58-0.061,3.025,0.34,4.335,1.2
		c1.31,0.859,2.225,2.12,2.745,3.779c0.06,0.221,0.04,0.44-0.06,0.66c-0.1,0.221-0.26,0.37-0.48,0.45
		c-0.08,0.08-0.16,0.14-0.24,0.18c-2.561,1.021-5.13,1.79-7.71,2.311c-0.021,0.02-0.041,0.029-0.06,0.029l-2.07,0.841l0.24,0.239
		c0.4,0.4,0.85,0.721,1.35,0.96C110.043,200.775,110.744,200.905,111.463,200.965z M108.194,195.295c-0.021,0.38,0,0.76,0.06,1.14
		c0.78-0.3,2.53-0.87,5.25-1.71c-0.26-0.439-0.46-0.729-0.6-0.87c-0.2-0.18-0.5-0.34-0.9-0.479
		C110.503,193.475,109.233,194.115,108.194,195.295z"/>
</g>
<g enable-background="new    ">
	<path fill="#5BB130" d="M122.563,210.415c-0.64-0.041-1.31-0.061-2.01-0.061c-0.26,0-0.48-0.09-0.66-0.27
		c-0.18-0.181-0.27-0.4-0.27-0.66c0-0.12,0.02-0.23,0.06-0.33c-0.06-0.141-0.09-0.29-0.09-0.45c0.02-0.9,0.06-2.45,0.12-4.65
		l0.18-5.069c0.04-1.2,0.075-2.7,0.105-4.5s0.045-3.45,0.045-4.95c0-0.08,0.01-0.16,0.03-0.24c-0.041-0.1-0.06-0.21-0.06-0.33
		c0-0.26,0.09-0.479,0.27-0.66c0.18-0.18,0.4-0.27,0.66-0.27h2.1c0.38,0,0.65,0.17,0.81,0.51c0.2,0.181,0.3,0.41,0.3,0.69
		l-0.03,0.63c0.28-0.24,0.59-0.47,0.93-0.69c0.64-0.42,1.47-0.659,2.49-0.72c2.24-0.12,3.92,0.641,5.04,2.28
		c0.94,1.4,1.25,3.05,0.93,4.95c-0.34,1.92-1.19,3.33-2.55,4.229c-1.58,1.08-3.4,1.07-5.46-0.03c-0.98-0.52-1.54-0.829-1.68-0.93
		l-0.06-0.06l-0.03,0.33c-0.06,0.979-0.08,2.63-0.06,4.949c0.02,2.221-0.02,3.931-0.12,5.13v0.061v0.24
		c-0.021,0.26-0.125,0.475-0.315,0.645S122.823,210.435,122.563,210.415z M129.163,195.625c0.3-0.4,0.48-0.78,0.54-1.141
		c0.06-0.42-0.02-0.89-0.24-1.41c-0.16-0.14-0.35-0.239-0.57-0.3c-0.88-0.24-1.95,0.141-3.21,1.141
		c-0.02,0.479-0.03,1.03-0.03,1.649C126.993,195.865,128.163,195.885,129.163,195.625z"/>
</g>
<g enable-background="new    ">
	<path fill="#5BB130" d="M145.483,189.025l0.03,1.141c0,0.359-0.15,0.64-0.45,0.84c-0.12,0.08-0.26,0.14-0.42,0.18
		c-0.82,0.12-1.67,0.221-2.55,0.3c-0.06,4.08-0.2,7.9-0.42,11.46c0,0.041-0.01,0.08-0.03,0.12c0.02,0.08,0.03,0.15,0.03,0.21
		c0,0.261-0.09,0.48-0.27,0.66c-0.18,0.18-0.4,0.271-0.66,0.271h-2.04c-0.26,0-0.48-0.091-0.66-0.271
		c-0.18-0.18-0.27-0.399-0.27-0.66c0-0.1,0.02-0.199,0.06-0.3c-0.08-0.14-0.12-0.29-0.12-0.45c0-4.039,0.02-7.46,0.06-10.26v-0.63
		c-0.88-0.02-1.71-0.08-2.49-0.18c-0.22-0.04-0.4-0.136-0.54-0.285c-0.14-0.15-0.229-0.325-0.27-0.525
		c-0.14-0.14-0.22-0.31-0.24-0.51l-0.12-1.021c-0.02-0.26,0.05-0.489,0.21-0.689c0.16-0.2,0.36-0.32,0.6-0.36h0.12
		c0.16-0.12,0.34-0.18,0.54-0.18c0.58,0,1.33-0.01,2.25-0.03c-0.02-0.899-0.08-1.72-0.18-2.46c-0.021-0.22,0.03-0.43,0.15-0.63
		c0.02-0.24,0.12-0.445,0.3-0.615c0.18-0.17,0.39-0.255,0.63-0.255h2.1c0.24,0,0.45,0.08,0.63,0.24c0.2,0.06,0.365,0.17,0.495,0.33
		s0.195,0.35,0.195,0.569v2.79c0.78,0,1.5,0.03,2.16,0.091c0.22,0.02,0.41,0.109,0.57,0.27
		C145.263,188.325,145.463,188.605,145.483,189.025z"/>
</g>
<g enable-background="new    ">
	<path fill="#5BB130" d="M157.093,189.055c2.24,0.26,4,1.12,5.28,2.58c1.64,1.8,2.14,4.109,1.5,6.93c-0.5,2.181-1.601,3.79-3.3,4.83
		c-1.46,0.88-3.57,1.12-6.33,0.72c-0.9-0.14-1.706-0.414-2.415-0.824c-0.71-0.41-1.275-0.905-1.695-1.485s-0.76-1.225-1.02-1.936
		c-0.26-0.709-0.395-1.435-0.405-2.175c-0.01-0.739,0.045-1.479,0.165-2.22c0.18-0.92,0.49-1.795,0.93-2.625s0.99-1.564,1.65-2.205
		c0.66-0.64,1.465-1.114,2.415-1.425c0.95-0.31,1.955-0.385,3.015-0.226C156.963,189.015,157.033,189.035,157.093,189.055z
		 M158.323,194.665c-1.02-0.2-1.67-0.271-1.95-0.21c-0.62,0.14-1.125,0.445-1.515,0.914c-0.39,0.471-0.615,1.006-0.675,1.605
		c-0.021,0.24,0,0.48,0.06,0.72c0.1,0.381,0.259,0.721,0.48,1.021c0.34,0.359,0.79,0.61,1.35,0.75c1.02,0.26,1.815,0.22,2.385-0.12
		s0.925-0.84,1.065-1.5c0.08-0.4,0.07-0.82-0.03-1.26c-0.12-0.38-0.26-0.73-0.42-1.051
		C158.873,195.215,158.623,194.925,158.323,194.665z"/>
</g>
<g enable-background="new    ">
	<path fill="#5BB130" d="M165.612,188.994l1.92-0.39c0.28-0.06,0.53-0.01,0.75,0.15c0.26,0.12,0.44,0.32,0.54,0.6
		c0.62,2.12,1.48,4.46,2.58,7.021l0.57-0.99l0.66-1.2l0.54-1.02c0.04-0.101,0.1-0.181,0.18-0.24c0.18-0.34,0.459-0.51,0.84-0.51h1.2
		c0.22-0.08,0.435-0.08,0.645,0c0.21,0.08,0.375,0.22,0.495,0.42l1.8,3.06c0.56-1.899,1.11-4.05,1.65-6.45
		c0.1-0.42,0.36-0.66,0.78-0.72c0.16-0.08,0.32-0.109,0.48-0.09l1.29,0.09c0.22,0.021,0.41,0.101,0.57,0.24
		c0.16,0.14,0.26,0.32,0.3,0.54c0.04,0.14,0.05,0.28,0.03,0.42c-0.26,1.46-0.585,3.665-0.975,6.615
		c-0.39,2.95-0.705,5.155-0.945,6.614c-0.04,0.221-0.15,0.4-0.33,0.54c-0.161,0.28-0.41,0.43-0.75,0.45l-0.81,0.03
		c-0.101,0.02-0.21,0.03-0.33,0.03c-0.041,0-0.5,0.039-1.38,0.119c-0.26,0.021-0.491-0.05-0.69-0.21s-0.31-0.37-0.33-0.63v-0.029
		l-1.86-4.98l-1.83,4.83c-0.1,0.221-0.265,0.38-0.495,0.479c-0.23,0.101-0.465,0.11-0.705,0.03l-1.89-0.03
		c-0.22,0-0.415-0.069-0.585-0.21c-0.17-0.14-0.275-0.31-0.315-0.51c-0.08-0.1-0.13-0.199-0.15-0.3
		c-1.22-4.62-2.53-8.649-3.93-12.09c-0.02-0.061-0.03-0.12-0.03-0.181c-0.12-0.119-0.19-0.259-0.21-0.42
		c-0.06-0.239-0.02-0.47,0.12-0.689C165.152,189.165,165.352,189.035,165.612,188.994z"/>
	<path fill="#5BB130" d="M192.971,200.965c1.261-0.12,2.311-0.86,3.15-2.221c0.12-0.22,0.305-0.359,0.555-0.42
		c0.25-0.06,0.485-0.029,0.705,0.091c0.16,0.02,0.311,0.08,0.451,0.18c0.119,0.101,0.239,0.195,0.359,0.285s0.189,0.146,0.21,0.165
		c0.02,0.02,0.065,0.055,0.136,0.104c0.069,0.051,0.114,0.08,0.135,0.09c0.02,0.011,0.09,0.045,0.209,0.105l0.42,0.24
		c0.221,0.14,0.361,0.335,0.42,0.585c0.061,0.25,0.031,0.484-0.09,0.705c-0.039,0.119-0.1,0.229-0.18,0.33
		c-0.84,1.02-1.37,1.63-1.59,1.829c-1.38,1.181-3.19,1.681-5.43,1.5c-2.76-0.22-4.76-1.159-6-2.819c-1.32-1.78-1.53-4.01-0.63-6.69
		c0.54-1.56,1.46-2.779,2.76-3.66c1.3-0.899,2.72-1.38,4.26-1.439c1.579-0.061,3.024,0.34,4.335,1.2
		c1.311,0.859,2.225,2.12,2.745,3.779c0.06,0.221,0.04,0.44-0.06,0.66c-0.101,0.221-0.261,0.37-0.48,0.45
		c-0.08,0.08-0.16,0.14-0.24,0.18c-2.561,1.021-5.13,1.79-7.709,2.311c-0.021,0.02-0.041,0.029-0.061,0.029l-2.07,0.841l0.24,0.239
		c0.4,0.4,0.85,0.721,1.35,0.96C191.551,200.775,192.252,200.905,192.971,200.965z M189.702,195.295c-0.02,0.38,0,0.76,0.061,1.14
		c0.779-0.3,2.529-0.87,5.25-1.71c-0.26-0.439-0.461-0.729-0.6-0.87c-0.201-0.18-0.501-0.34-0.9-0.479
		C192.012,193.475,190.742,194.115,189.702,195.295z"/>
</g>
<g enable-background="new    ">
	<path fill="#5BB130" d="M212.803,193.375c-1.061-0.601-2.01-0.55-2.85,0.149c-0.761,0.641-1.41,1.69-1.951,3.15v3.27v3.271
		c0.061,0.1,0.091,0.21,0.091,0.33c0.02,0.26-0.056,0.484-0.226,0.675c-0.17,0.189-0.385,0.295-0.645,0.314
		c-0.641,0.04-1.61,0.061-2.91,0.061c-0.26,0-0.48-0.09-0.66-0.271c-0.18-0.18-0.27-0.4-0.27-0.659c0-0.221,0.07-0.421,0.21-0.601
		c0-0.58,0.015-1.954,0.045-4.125c0.03-2.17,0.03-3.939,0-5.31s-0.115-2.715-0.255-4.035v-0.18c-0.021-0.2,0.024-0.396,0.135-0.585
		c0.109-0.19,0.275-0.315,0.495-0.375c0.819-0.301,1.92-0.45,3.3-0.45c0.26,0,0.48,0.09,0.66,0.27c0.18,0.181,0.27,0.4,0.27,0.66
		c0,0.12-0.02,0.24-0.06,0.36l-0.03,0.33c0.84-0.74,1.68-1.25,2.52-1.53c0.601-0.18,1.19-0.26,1.771-0.24
		c0.58,0.021,1.149,0.226,1.71,0.615s1.051,0.935,1.471,1.635c0.02,0.061,0.039,0.11,0.06,0.15c0.12,0.2,0.165,0.42,0.135,0.66
		c-0.03,0.239-0.135,0.43-0.315,0.569l-0.569,0.45c-0.101,0.08-0.16,0.125-0.181,0.135c-0.02,0.011-0.039,0.03-0.06,0.061
		c-0.021,0.029-0.07,0.1-0.149,0.21c-0.08,0.11-0.191,0.245-0.33,0.404c-0.021,0.041-0.041,0.07-0.061,0.091
		c-0.02,0.06-0.05,0.12-0.09,0.18c-0.12,0.24-0.305,0.39-0.555,0.45C213.258,193.525,213.023,193.494,212.803,193.375z"/>
</g>
<g enable-background="new    ">
	<path fill="#5BB130" d="M231.221,205.074c-1.379,0-2.43-0.02-3.149-0.06c-0.261-0.021-0.476-0.125-0.646-0.315
		c-0.17-0.189-0.244-0.415-0.225-0.675v-0.09c-0.061-0.14-0.09-0.3-0.09-0.479c0.039-0.66,0.07-1.37,0.09-2.131
		c0-0.119,0.03-0.239,0.09-0.359c0-0.34-0.06-2.91-0.18-7.71c-0.02-0.76-0.01-2.49,0.029-5.19c0.041-2.14,0-3.79-0.119-4.95
		c-0.16-0.159-0.25-0.35-0.27-0.569c-0.021-0.26,0.055-0.49,0.225-0.69c0.17-0.199,0.375-0.31,0.615-0.33
		c1.999-0.159,4.1-0.149,6.299,0.03c2.86,0.26,4.92,0.8,6.181,1.62c1.12,0.74,1.95,1.595,2.489,2.564
		c0.541,0.971,0.73,1.976,0.57,3.016c-0.14,1-0.59,1.91-1.35,2.729c-0.76,0.82-1.74,1.48-2.939,1.98c-1.5,0.6-3.83,0.899-6.99,0.899
		c-0.041,1.08-0.03,2.511,0.029,4.29c0.1,2.961,0.15,4.641,0.15,5.04c0.08,0.14,0.12,0.29,0.12,0.45c0,0.26-0.091,0.48-0.271,0.66
		S231.481,205.074,231.221,205.074z M233.051,186.655c-0.06,1.16-0.1,2.23-0.119,3.21c0.799,0.061,1.42,0.091,1.859,0.091
		c1.26-0.021,2.21-0.34,2.85-0.961c0.08-0.199,0.11-0.39,0.091-0.569c-0.021-0.4-0.23-0.88-0.63-1.44c-0.44-0.199-1-0.33-1.68-0.39
		C234.742,186.534,233.952,186.555,233.051,186.655z"/>
</g>
<g enable-background="new    ">
	<path fill="#5BB130" d="M252.941,195.565c0.04-0.38,0.06-0.739,0.06-1.08c0.02-1.2-0.209-1.97-0.689-2.31
		c-0.6-0.46-1.71-0.391-3.33,0.21c-0.4,0.14-0.74,0.06-1.02-0.24c-0.341-0.1-0.561-0.319-0.66-0.66l-0.48-2.01
		c-0.061-0.26-0.02-0.495,0.12-0.705s0.33-0.345,0.569-0.405c0.16-0.039,0.32-0.039,0.48,0c0.04,0,0.189-0.024,0.45-0.074
		c0.26-0.05,0.435-0.08,0.524-0.091c0.091-0.01,0.26-0.034,0.511-0.074c0.249-0.04,0.439-0.065,0.569-0.075
		c0.131-0.01,0.311-0.025,0.541-0.045c0.229-0.02,0.424-0.025,0.584-0.016c0.16,0.011,0.34,0.025,0.541,0.045
		c0.199,0.021,0.39,0.051,0.569,0.091c2.681,0.58,4.05,2.899,4.11,6.96c0,1.16-0.101,2.66-0.301,4.5
		c-0.22,2.1-0.34,3.25-0.359,3.449c0,0.221-0.07,0.41-0.21,0.57s-0.311,0.26-0.511,0.3c-0.18,0.14-0.379,0.2-0.6,0.181
		c-0.74-0.041-1.48-0.07-2.22-0.091c-0.261,0-0.476-0.095-0.646-0.284c-0.17-0.19-0.254-0.415-0.254-0.676v-0.119v-0.091
		c-0.921,0.161-1.801,0.23-2.641,0.21c-2.4-0.1-4.061-0.899-4.98-2.399c-0.22-0.4-0.34-0.865-0.359-1.396
		c-0.021-0.529,0.05-0.964,0.21-1.305c0.739-1.96,2.35-2.979,4.83-3.06C249.67,194.815,251.201,195.045,252.941,195.565z
		 M252.34,198.505c-0.14-0.02-0.6-0.14-1.379-0.36c-0.581-0.16-1.041-0.27-1.381-0.33c-0.359-0.079-0.68-0.13-0.959-0.149
		c-0.541,0.16-0.916,0.37-1.125,0.63c-0.211,0.26-0.315,0.51-0.315,0.75c0.02,0.38,0.259,0.72,0.72,1.02
		c0.08,0,0.16,0.011,0.24,0.03c1.359,0.101,2.67-0.03,3.93-0.39c0.12-0.44,0.22-0.841,0.301-1.2H252.34z"/>
	<path fill="#5BB130" d="M267.551,193.375c-1.061-0.601-2.011-0.55-2.851,0.149c-0.761,0.641-1.41,1.69-1.95,3.15v3.27v3.271
		c0.061,0.1,0.09,0.21,0.09,0.33c0.02,0.26-0.055,0.484-0.225,0.675c-0.17,0.189-0.385,0.295-0.645,0.314
		c-0.641,0.04-1.611,0.061-2.91,0.061c-0.261,0-0.48-0.09-0.66-0.271c-0.18-0.18-0.27-0.4-0.27-0.659
		c0-0.221,0.069-0.421,0.209-0.601c0-0.58,0.016-1.954,0.045-4.125c0.03-2.17,0.03-3.939,0-5.31
		c-0.029-1.37-0.115-2.715-0.254-4.035v-0.18c-0.021-0.2,0.023-0.396,0.135-0.585c0.109-0.19,0.274-0.315,0.494-0.375
		c0.82-0.301,1.92-0.45,3.301-0.45c0.26,0,0.479,0.09,0.66,0.27c0.18,0.181,0.27,0.4,0.27,0.66c0,0.12-0.02,0.24-0.061,0.36
		l-0.029,0.33c0.84-0.74,1.68-1.25,2.52-1.53c0.6-0.18,1.189-0.26,1.77-0.24c0.58,0.021,1.15,0.226,1.711,0.615
		c0.56,0.39,1.05,0.935,1.47,1.635c0.02,0.061,0.04,0.11,0.06,0.15c0.121,0.2,0.166,0.42,0.135,0.66
		c-0.029,0.239-0.135,0.43-0.314,0.569l-0.57,0.45c-0.1,0.08-0.16,0.125-0.18,0.135c-0.02,0.011-0.04,0.03-0.061,0.061
		c-0.02,0.029-0.07,0.1-0.149,0.21c-0.08,0.11-0.19,0.245-0.33,0.404c-0.021,0.041-0.04,0.07-0.06,0.091
		c-0.021,0.06-0.051,0.12-0.09,0.18c-0.121,0.24-0.306,0.39-0.555,0.45C268.005,193.525,267.77,193.494,267.551,193.375z"/>
</g>
<g enable-background="new    ">
	<path fill="#5BB130" d="M286.481,202.074c-1.101-0.56-2.65-1.47-4.65-2.729l-3.33-2.101c0,2.081,0.029,4.101,0.09,6.061
		c0,0.26-0.09,0.49-0.27,0.689c-0.061,0.2-0.176,0.365-0.346,0.495s-0.365,0.195-0.585,0.195c-0.659-0.021-1.319-0.03-1.979-0.03
		c-0.4,0-0.681-0.19-0.84-0.569c-0.201-0.181-0.301-0.4-0.301-0.66c0-1.36-0.025-3.4-0.074-6.12c-0.051-2.72-0.076-4.76-0.076-6.12
		c0-0.6,0.011-1.45,0.031-2.55c0.02-1.1,0.039-1.81,0.06-2.13c0.02-1.84-0.03-3.36-0.149-4.561c0-0.12,0.01-0.239,0.029-0.359
		c-0.061-0.12-0.08-0.26-0.061-0.42c0.02-0.26,0.131-0.47,0.33-0.631c0.2-0.159,0.43-0.229,0.69-0.21
		c0.601,0.061,1.45,0.091,2.55,0.091c0.16-0.08,0.33-0.12,0.51-0.12c0.24,0.02,0.451,0.125,0.631,0.314
		c0.18,0.19,0.26,0.416,0.24,0.675c-0.181,3.141-0.301,6.03-0.361,8.671l5.611-5.61c0.159-0.16,0.35-0.25,0.569-0.271
		c0.24-0.1,0.476-0.114,0.705-0.045c0.229,0.07,0.405,0.216,0.524,0.436c0.101,0.16,0.32,0.56,0.66,1.2l0.78,1.439
		c0.04,0.12,0.069,0.24,0.091,0.36c0.1,0.22,0.114,0.445,0.045,0.675c-0.07,0.23-0.216,0.405-0.436,0.525
		c-1.721,0.939-3.891,2.52-6.51,4.739c0.56,0.36,1.47,0.921,2.729,1.681l3.33,1.979l2.67,1.74c0.16,0.101,0.271,0.24,0.33,0.42
		c0.04,0.021,0.079,0.06,0.12,0.12c0.14,0.2,0.185,0.425,0.135,0.675s-0.186,0.455-0.404,0.615c-0.541,0.359-1.101,0.77-1.681,1.229
		c-0.16,0.141-0.36,0.21-0.6,0.21C287.03,202.195,286.76,202.195,286.481,202.074z"/>
</g>
</svg>
